<?xml version="1.0" encoding="UTF-8" standalone="no"?>
<!-- Created with Inkscape (http://www.inkscape.org/) -->

<svg
   width="169.85245mm"
   height="169.85231mm"
   viewBox="0 0 169.85245 169.85231"
   version="1.1"
   id="svg197"
   inkscape:version="1.1.2 (0a00cf5339, 2022-02-04)"
   sodipodi:docname="4ks-logo-v002.svg"
   xmlns:inkscape="http://www.inkscape.org/namespaces/inkscape"
   xmlns:sodipodi="http://sodipodi.sourceforge.net/DTD/sodipodi-0.dtd"
   xmlns="http://www.w3.org/2000/svg"
   xmlns:svg="http://www.w3.org/2000/svg">
  <sodipodi:namedview
     id="namedview199"
     pagecolor="#505050"
     bordercolor="#ffffff"
     borderopacity="1"
     inkscape:pageshadow="0"
     inkscape:pageopacity="0"
     inkscape:pagecheckerboard="1"
     inkscape:document-units="mm"
     showgrid="false"
     inkscape:zoom="0.58707211"
     inkscape:cx="196.73903"
     inkscape:cy="547.6329"
     inkscape:window-width="1712"
     inkscape:window-height="894"
     inkscape:window-x="0"
     inkscape:window-y="0"
     inkscape:window-maximized="1"
     inkscape:current-layer="layer1"
     fit-margin-top="0"
     fit-margin-left="0"
     fit-margin-right="0"
     fit-margin-bottom="0" />
  <defs
     id="defs194" />
  <g
     inkscape:label="Layer 1"
     inkscape:groupmode="layer"
     id="layer1"
     transform="translate(-1.3460874,-3.6118993)">
    <path
       id="path10045-6"
       style="fill:#f05033;stroke-width:0.450683"
       d="m 86.272319,3.6118993 a 12.700001,12.700001 0 0 0 -8.980332,3.71967 L 50.159276,34.464279 32.198616,52.424939 5.0659056,79.55765 a 12.699999,12.699999 0 0 0 0,17.96066 l 45.0933704,45.09337 27.132711,27.13271 a 12.7,12.7 0 0 0 17.96066,0 l 0.384474,-0.38447 c -2.75695,-4.0378 -5.76721,-8.44742 -6.148461,-9.02529 -2.940082,-4.45639 -9.067231,-12.5049 -10.644312,-13.98209 -2.42928,-2.27543 -7.569197,-4.63411 -11.707296,-5.37228 -5.811711,-1.03671 -6.991811,-1.92011 -11.58689,-8.67544 -8.0157,-11.78405 -31.948658,-51.430048 -36.009687,-59.651657 -1.09794,-2.222783 -1.097693,-2.228808 0.01964,-1.072288 0.61812,0.639834 2.493928,3.086407 4.168738,5.436878 1.674798,2.350477 3.850535,5.383305 4.834846,6.739642 0.9843,1.356336 7.365294,10.580486 14.180013,20.497975 6.814709,9.91746 12.758587,18.2105 13.208495,18.42885 0.992492,0.48169 2.673255,-0.7283 2.976563,-2.14251 0.188139,-0.87726 -3.0656,-6.44957 -12.065929,-20.663338 C 38.487547,86.651711 26.672918,66.885768 26.204666,65.317175 25.610248,63.32591 35.218488,76.497101 47.55892,94.589291 c 10.500069,15.394079 14.832769,21.491259 15.637287,22.005889 0.83498,0.53413 2.869467,-0.29614 3.235979,-1.32033 0.326149,-0.9114 -2.246083,-5.38718 -9.221142,-16.045532 C 43.433714,78.176626 31.943145,59.557177 33.041975,60.065817 c 0.98819,0.457425 11.61863,14.840964 27.094472,36.659778 10.030568,14.141715 10.52242,14.767795 11.567252,14.724165 0.468508,-0.0196 1.284063,-0.40879 1.812293,-0.86506 0.72164,-0.62328 0.853405,-1.12403 0.529166,-2.01487 C 73.807827,107.91775 68.849647,99.950569 63.027226,90.865487 48.257637,67.819503 41.001563,56.178514 40.879222,55.334324 40.644814,53.716786 55.643306,73.20965 68.819638,91.646836 c 0.972409,1.360664 3.183159,4.440925 4.912359,6.845059 8.03937,11.177175 11.985244,17.140035 12.781132,19.312515 0.905592,2.47053 1.054227,5.50462 0.420648,8.5571 -0.976111,4.70283 -0.706443,9.05716 0.821137,13.27206 1.087041,3.00022 5.199396,9.85544 14.136606,23.47195 l 4.46691,-4.46691 c -0.41604,-5.48413 -0.83927,-11.10521 -0.88418,-11.85767 -0.31798,-5.3294 -1.60006,-15.36315 -2.22726,-17.43098 -0.9661,-3.18522 -4.237643,-7.79802 -7.452256,-10.50634 -4.514729,-3.80369 -5.095021,-5.15885 -5.69681,-13.30668 -1.049769,-14.213129 -1.953456,-60.513833 -1.359607,-69.664477 0.160542,-2.473952 0.163608,-2.479545 0.552937,-0.919324 0.215392,0.863169 0.616736,3.920411 0.891937,6.793384 0.27518,2.872972 0.64325,6.586984 0.81752,8.253759 0.17426,1.666774 1.08843,12.84574 2.031402,24.841893 0.942988,11.996131 1.943693,22.149945 2.224154,22.563997 0.618678,0.913402 2.679099,0.706186 3.648871,-0.366901 0.60157,-0.665657 0.569799,-7.118614 -0.117821,-23.928255 -0.639882,-15.642272 -0.988566,-38.667504 -0.609783,-40.260076 0.480851,-2.021699 2.216616,14.189263 3.857646,36.027775 1.39629,18.581695 2.09996,26.027925 2.53938,26.87588 0.45605,0.880057 2.63282,1.179142 3.46232,0.475422 0.73816,-0.626219 0.74862,-5.788943 0.0372,-18.506879 -1.40517,-25.120833 -2.04709,-46.991245 -1.34979,-46.001325 0.62708,0.890227 2.64202,18.662371 5.13509,45.29594 1.61586,17.262372 1.72898,18.050669 2.65565,18.535304 0.41554,0.217278 1.31635,0.287602 2.00194,0.156577 0.93661,-0.178951 1.30093,-0.546917 1.46555,-1.480529 0.12051,-0.683381 -0.19006,-10.061985 -0.68989,-20.841104 -1.26784,-27.343206 -1.73156,-41.052731 -1.41541,-41.844991 0.60576,-1.518029 3.84904,22.862666 6.04149,45.4179 0.16179,1.664576 0.53549,5.437339 0.83096,8.383985 1.3737,13.699397 1.81033,20.836525 1.41335,23.115895 -0.451,2.59234 -1.83955,5.29452 -3.91449,7.62125 -3.19675,3.58471 -5.14069,7.49019 -5.92522,11.90418 -0.49411,2.77849 -0.40795,9.72513 0.25218,22.43532 l 25.77052,-25.77052 27.13271,-27.13271 a 12.699999,12.699999 0 0 0 0,-17.96066 L 122.38536,34.464279 95.252647,7.3315693 a 12.700001,12.700001 0 0 0 -8.980328,-3.71967 z"
       inkscape:export-filename="/code/4ks/media/4ks-logo.png"
       inkscape:export-xdpi="96"
       inkscape:export-ydpi="96" />
  </g>
</svg>
